<?xml version="1.0" encoding="UTF-8"?>
<svg xmlns="http://www.w3.org/2000/svg" width="1800" height="440" viewBox="0 0 900 220" role="img" aria-labelledby="title desc">
  <title id="title">BearAgent</title>
  <desc id="desc">BearAgent wordmark with a friendly geometric bear inside an inspectable runtime boundary.</desc>
  <g transform="translate(18 23) scale(0.79)" stroke-linecap="round" stroke-linejoin="round">
    <circle cx="110" cy="110" r="99" fill="#eef5ff"/>
    <path d="M 57 24 H 29 V 52 M 163 24 H 191 V 52 M 29 168 V 196 H 57 M 191 168 V 196 H 163" fill="none" stroke="#2364aa" stroke-width="7"/>

    <circle cx="78" cy="69" r="25" fill="#d8752c" stroke="#18263b" stroke-width="4"/>
    <circle cx="142" cy="69" r="25" fill="#d8752c" stroke="#18263b" stroke-width="4"/>
    <circle cx="78" cy="69" r="11" fill="#f5b168"/>
    <circle cx="142" cy="69" r="11" fill="#f5b168"/>
    <path d="M 52 111 C 52 75 75 51 110 51 C 145 51 168 75 168 111 V 128 C 168 164 144 186 110 186 C 76 186 52 164 52 128 Z" fill="#d8752c" stroke="#18263b" stroke-width="4"/>
    <ellipse cx="86" cy="115" rx="6" ry="8" fill="#18263b"/>
    <ellipse cx="134" cy="115" rx="6" ry="8" fill="#18263b"/>
    <circle cx="88" cy="112" r="2" fill="#fff"/>
    <circle cx="136" cy="112" r="2" fill="#fff"/>
    <ellipse cx="110" cy="145" rx="35" ry="29" fill="#fff0d7"/>
    <path d="M 100 136 Q 110 129 120 136 Q 118 145 110 145 Q 102 145 100 136 Z" fill="#18263b"/>
    <path d="M 110 145 V 152 M 110 152 C 102 162 92 160 88 152 M 110 152 C 118 162 128 160 132 152" fill="none" stroke="#18263b" stroke-width="4"/>
  </g>

  <text x="215" y="148" font-family="Inter, system-ui, -apple-system, 'Segoe UI', Arial, sans-serif" font-size="112" font-weight="800" letter-spacing="-5">
    <tspan fill="#18263b">Bear</tspan><tspan fill="#c9681f">Agent</tspan>
  </text>
</svg>
